<svg width="80" height="80" viewBox="0 0 80 80" fill="none" xmlns="http://www.w3.org/2000/svg">
<g id="Icon/Fill/cloud-upload">
<path id="Mask" fill-rule="evenodd" clip-rule="evenodd" d="M72.82 39.4244C72.891 39.6511 72.9622 39.8781 73.0093 40.114C73.216 41.1573 73.3327 42.2307 73.3327 43.334C73.3327 44.3607 73.2127 45.3707 73.026 46.3673C72.9847 46.5945 72.9292 46.8122 72.8736 47.0303C72.8484 47.1289 72.8232 47.2276 72.7993 47.3273C72.6327 47.9907 72.436 48.6407 72.1927 49.2773C72.066 49.6073 71.936 49.9307 71.7894 50.2507C71.4994 50.884 71.1627 51.4907 70.7927 52.0873C70.7352 52.1798 70.6805 52.2737 70.6258 52.3676C70.5347 52.5241 70.4435 52.6807 70.3393 52.8307C70.3089 52.8739 70.2831 52.9187 70.2574 52.9632C70.2297 53.0113 70.2022 53.059 70.1693 53.104C70.1436 53.1408 70.1077 53.1643 70.0723 53.1876C70.0436 53.2065 70.0151 53.2252 69.9927 53.2507C66.9527 57.324 62.1393 60.0007 56.666 60.0007H46.666V55.7773C47.6693 56.3573 48.8093 56.6673 49.9993 56.6673C51.7793 56.6673 53.4527 55.974 54.7127 54.714C57.3127 52.1173 57.3127 47.884 54.7127 45.2873L44.7127 35.2873C43.4593 34.0307 41.786 33.3373 40.006 33.3373C38.276 33.3373 36.6327 33.994 35.3793 35.1907L25.3693 44.8573C22.726 47.4107 22.6527 51.6407 25.206 54.284C26.4593 55.5807 28.206 56.324 30.006 56.324C31.1893 56.324 32.3293 56.014 33.3327 55.434V60.0007H23.3327C17.8593 60.0007 13.046 57.324 10.0093 53.2507C9.98599 53.2258 9.95751 53.2074 9.92896 53.1889C9.89233 53.1652 9.85557 53.1414 9.82935 53.104C9.7941 53.0557 9.76504 53.0044 9.73586 52.9528C9.71261 52.9118 9.68928 52.8706 9.66268 52.8307C9.55629 52.6774 9.46212 52.5174 9.36804 52.3576C9.31474 52.267 9.26147 52.1765 9.20602 52.0873C8.83935 51.4907 8.49935 50.884 8.20935 50.2507C8.0674 49.9409 7.94419 49.6281 7.81855 49.3091L7.80602 49.2773C7.56602 48.6407 7.36602 47.9907 7.20268 47.3273C7.18159 47.243 7.15981 47.1593 7.13806 47.0758C7.07732 46.8425 7.01687 46.6103 6.97268 46.3673C6.78935 45.3707 6.66602 44.3607 6.66602 43.334C6.66602 42.2307 6.78602 41.1573 6.98935 40.114C7.03793 39.8711 7.11194 39.6376 7.18593 39.4041C7.22872 39.2691 7.27149 39.1341 7.30935 38.9973C7.32328 38.9461 7.33717 38.8949 7.35106 38.8438C7.50997 38.258 7.66891 37.6722 7.89268 37.1173C8.01342 36.8155 8.16166 36.533 8.31035 36.2497C8.37512 36.1263 8.43997 36.0027 8.50268 35.8773C8.52401 35.8349 8.54527 35.7926 8.56651 35.7503C8.80076 35.2838 9.0315 34.8244 9.31268 34.3873C9.52525 34.051 9.76606 33.7407 10.0071 33.4302C10.0646 33.356 10.1222 33.2819 10.1793 33.2073L10.1912 33.1921C10.5138 32.7773 10.8337 32.3659 11.1927 31.9807C11.5143 31.6338 11.8597 31.3228 12.2093 31.0081C12.2293 30.99 12.2493 30.972 12.2693 30.954C12.6627 30.6007 13.0627 30.2607 13.4893 29.9473C13.886 29.654 14.2927 29.3873 14.716 29.134C15.1827 28.8473 15.6593 28.5907 16.1527 28.354C16.586 28.144 17.0193 27.954 17.4727 27.784C18.0127 27.5773 18.5693 27.414 19.136 27.2673C19.586 27.1473 20.026 27.0307 20.4927 26.954C20.5808 26.9378 20.6663 26.9146 20.7517 26.8913C20.8603 26.8618 20.9689 26.8322 21.0827 26.8173C23.8193 18.8707 31.3993 13.334 39.9993 13.334C48.6027 13.334 56.1827 18.8707 58.916 26.8173C59.03 26.8323 59.1399 26.8619 59.2496 26.8915C59.3356 26.9147 59.4215 26.9379 59.5093 26.954C59.9727 27.0307 60.416 27.1473 60.8627 27.2673C61.4294 27.414 61.986 27.5773 62.526 27.784C62.9793 27.954 63.416 28.144 63.846 28.354C64.3393 28.5907 64.816 28.8473 65.2827 29.134C65.706 29.3873 66.116 29.654 66.5127 29.9473C66.936 30.2607 67.336 30.6007 67.7293 30.954C68.1027 31.2873 68.466 31.614 68.8093 31.9807C69.1727 32.3707 69.496 32.7873 69.8193 33.2073C69.8616 33.2618 69.904 33.3162 69.9463 33.3704C70.2042 33.701 70.4603 34.0294 70.6893 34.3873C70.9663 34.8226 71.1961 35.2801 71.4293 35.7446C71.4515 35.7888 71.4737 35.833 71.496 35.8773C71.5587 36.0027 71.6236 36.1263 71.6883 36.2497C71.837 36.533 71.9853 36.8154 72.106 37.1173C72.3335 37.6738 72.493 38.2615 72.6524 38.849C72.6658 38.8984 72.6792 38.9479 72.6927 38.9973C72.7312 39.141 72.7756 39.2826 72.82 39.4244ZM37.6833 37.6C38.9967 36.3466 41.0734 36.3566 42.3567 37.6433L52.3567 47.6433C53.66 48.9467 53.66 51.0533 52.3567 52.3567C51.7067 53.0066 50.8534 53.3333 50 53.3333C49.1467 53.3333 48.2934 53.0066 47.6434 52.3567L43.3334 48.0466V66.6667C43.3334 68.51 41.84 70 40 70C38.16 70 36.6667 68.51 36.6667 66.6667V47.8533L32.3167 52.0533C30.9934 53.3367 28.8834 53.2933 27.6034 51.97C26.3234 50.6433 26.36 48.5367 27.6834 47.2566L37.6833 37.6Z" fill="url(#paint0_linear_0_1629)" fill-opacity="0.5"/>
</g>
<defs>
<linearGradient id="paint0_linear_0_1629" x1="6.66602" y1="41.3837" x2="81.8327" y2="41.3837" gradientUnits="userSpaceOnUse">
<stop stop-color="#C20167"/>
<stop offset="1" stop-color="#064198"/>
</linearGradient>
</defs>
</svg>
