<svg width="24" height="25" viewBox="0 0 24 25" fill="none" xmlns="http://www.w3.org/2000/svg">
<path fill-rule="evenodd" clip-rule="evenodd" d="M19.0244 12.3549L15.6553 8.98149L18.0905 6.54184L21.4584 9.91404L19.0244 12.3549ZM23.2563 8.17287L23.2551 8.17162L19.8322 4.74434C18.9059 3.81931 17.3145 3.77549 16.4369 4.65797L5.19075 15.9187C4.78321 16.3255 4.53069 16.8662 4.47818 17.4383L4.00438 22.6581C3.97188 23.0273 4.10314 23.3928 4.36567 23.6557C4.60194 23.8923 4.92072 24.0225 5.24951 24.0225C5.28826 24.0225 5.32577 24.0212 5.36327 24.0175L10.5763 23.543C11.1489 23.4905 11.6877 23.2389 12.0939 22.8321L23.3413 11.5701C24.2514 10.6563 24.2127 9.13171 23.2563 8.17287Z" fill="url(#paint0_linear_0_1899)"/>
<defs>
<linearGradient id="paint0_linear_0_1899" x1="3.99951" y1="13.9225" x2="26.5495" y2="13.9225" gradientUnits="userSpaceOnUse">
<stop stop-color="#064198"/>
<stop offset="0.67" stop-color="#C20167"/>
</linearGradient>
</defs>
</svg>
