<svg width="24" height="25" viewBox="0 0 24 25" fill="none" xmlns="http://www.w3.org/2000/svg">
<path fill-rule="evenodd" clip-rule="evenodd" d="M12 21.5C11.734 21.5 11.48 21.395 11.292 21.206L3.52505 13.426C1.48905 11.386 1.48905 8.067 3.52505 6.027C4.50805 5.043 5.82105 4.5 7.22005 4.5C8.61905 4.5 9.93205 5.043 10.915 6.027L12 7.114L13.084 6.028C14.068 5.043 15.381 4.5 16.78 4.5C18.179 4.5 19.492 5.043 20.475 6.027C22.511 8.067 22.511 11.386 20.476 13.426L12.708 21.207C12.52 21.395 12.266 21.5 12 21.5Z" fill="url(#paint0_linear_0_688)"/>
<defs>
<linearGradient id="paint0_linear_0_688" x1="1.99805" y1="12.915" x2="24.5527" y2="12.915" gradientUnits="userSpaceOnUse">
<stop stop-color="#064198"/>
<stop offset="0.67" stop-color="#C20167"/>
</linearGradient>
</defs>
</svg>
