<svg width="24" height="24" viewBox="0 0 24 24" fill="none" xmlns="http://www.w3.org/2000/svg">
<path fill-rule="evenodd" clip-rule="evenodd" d="M8.34176 5.553C8.51076 5.214 8.85776 5 9.23676 5H14.7638C15.1428 5 15.4888 5.214 15.6578 5.553L18.3818 11H15.9998C15.4478 11 14.9998 11.448 14.9998 12V14C14.9998 14.553 14.5518 15 13.9998 15H9.99976C9.44776 15 8.99976 14.553 8.99976 14V12C8.99976 11.448 8.55176 11 7.99976 11H5.61776L8.34176 5.553ZM20.7888 11.342L17.4468 4.658C16.9358 3.636 15.9078 3 14.7638 3H9.23576C8.09176 3 7.06476 3.636 6.55276 4.658L3.21076 11.342C3.07276 11.618 2.99976 11.928 2.99976 12.237V18C2.99976 19.655 4.34576 21 5.99976 21H17.9998C19.6548 21 20.9998 19.655 20.9998 18V12.237C20.9998 11.928 20.9268 11.618 20.7888 11.342Z" fill="url(#paint0_linear_0_1185)"/>
<defs>
<linearGradient id="paint0_linear_0_1185" x1="2.99976" y1="11.91" x2="23.2948" y2="11.91" gradientUnits="userSpaceOnUse">
<stop stop-color="#064198"/>
<stop offset="0.67" stop-color="#C20167"/>
</linearGradient>
</defs>
</svg>
