<svg width="25" height="25" viewBox="0 0 25 25" fill="none" xmlns="http://www.w3.org/2000/svg">
<path fill-rule="evenodd" clip-rule="evenodd" d="M15.5 13.5H13.5V15.5C13.5 16.05 13.05 16.5 12.5 16.5C11.95 16.5 11.5 16.05 11.5 15.5V13.5H9.5C8.95 13.5 8.5 13.05 8.5 12.5C8.5 11.95 8.95 11.5 9.5 11.5H11.5V9.5C11.5 8.95 11.95 8.5 12.5 8.5C13.05 8.5 13.5 8.95 13.5 9.5V11.5H15.5C16.05 11.5 16.5 11.95 16.5 12.5C16.5 13.05 16.05 13.5 15.5 13.5ZM18.5 3.5H6.5C4.846 3.5 3.5 4.846 3.5 6.5V18.5C3.5 20.154 4.846 21.5 6.5 21.5H18.5C20.154 21.5 21.5 20.154 21.5 18.5V6.5C21.5 4.846 20.154 3.5 18.5 3.5Z" fill="#7C7C7C"/>
</svg>
