<svg width="24" height="24" viewBox="0 0 24 24" fill="none" xmlns="http://www.w3.org/2000/svg">
<path fill-rule="evenodd" clip-rule="evenodd" d="M11.5604 11.561C10.9744 12.147 10.0254 12.147 9.43944 11.561C8.85344 10.975 8.85344 10.025 9.43944 9.43997C10.0254 8.85397 10.9744 8.85397 11.5604 9.43997C12.1464 10.025 12.1464 10.975 11.5604 11.561ZM21.4674 11.582L15.0504 5.16497C14.8854 4.99997 14.6684 4.89797 14.4364 4.87697L5.09244 4.00497C4.79544 3.97497 4.50344 4.08197 4.29244 4.29297C4.08144 4.50397 3.97644 4.79697 4.00344 5.09297L4.87544 14.437C4.89844 14.669 4.99944 14.887 5.16444 15.051L11.5814 21.469C11.9364 21.822 12.4014 21.999 12.8664 21.999C13.3314 21.999 13.7964 21.822 14.1514 21.468L21.4674 14.152C21.8104 13.81 21.9994 13.353 21.9994 12.867C21.9994 12.381 21.8104 11.925 21.4674 11.582Z" fill="url(#paint0_linear_0_1191)"/>
<defs>
<linearGradient id="paint0_linear_0_1191" x1="3.99927" y1="12.9095" x2="24.2945" y2="12.9095" gradientUnits="userSpaceOnUse">
<stop stop-color="#064198"/>
<stop offset="0.67" stop-color="#C20167"/>
</linearGradient>
</defs>
</svg>
